<?xml version="1.0" standalone="no"?>
<!DOCTYPE svg PUBLIC "-//W3C//DTD SVG 20010904//EN"
 "http://www.w3.org/TR/2001/REC-SVG-20010904/DTD/svg10.dtd">
<svg version="1.0" xmlns="http://www.w3.org/2000/svg"
 width="512.000000pt" height="512.000000pt" viewBox="0 0 512.000000 512.000000"
 preserveAspectRatio="xMidYMid meet">
<metadata>
Created by potrace 1.14, written by Peter Selinger 2001-2017
</metadata>
<g transform="translate(0.000000,512.000000) scale(0.100000,-0.100000)"
fill="#000000" stroke="none">
<path d="M2436 5065 c-104 -42 -182 -125 -213 -225 -18 -56 -20 -152 -4 -207
26 -94 135 -207 224 -234 46 -13 47 -14 47 -56 1 -24 1 -126 1 -228 0 -102 0
-205 -1 -230 l0 -45 -42 30 c-106 77 -276 91 -402 32 -116 -54 -212 -171 -232
-281 -9 -47 -17 -56 -53 -59 -16 -1 -40 -6 -51 -10 -19 -7 -52 22 -244 212
l-221 221 24 54 c62 140 28 307 -85 410 -76 69 -134 91 -242 88 -99 -2 -167
-29 -240 -93 -117 -102 -144 -307 -58 -443 94 -148 294 -209 448 -136 l55 26
206 -207 205 -208 -43 -44 c-114 -117 -153 -302 -97 -457 12 -33 23 -63 25
-68 1 -4 -16 -17 -38 -29 -57 -32 -160 -138 -184 -190 l-20 -45 -246 1 -246 1
-24 59 c-42 104 -124 180 -228 211 -119 35 -264 -2 -352 -90 -154 -154 -130
-421 49 -544 193 -133 466 -42 538 179 l15 45 231 0 c128 0 232 -2 233 -5 0
-3 2 -12 3 -20 2 -8 6 -39 10 -69 8 -64 53 -157 103 -212 35 -39 36 -40 23
-82 -46 -155 3 -333 125 -451 l63 -61 -174 -174 -173 -174 -48 21 c-203 86
-418 -3 -494 -203 -20 -51 -22 -158 -5 -213 48 -155 170 -250 329 -256 142 -6
273 75 333 207 25 54 29 74 29 152 0 77 -4 98 -26 142 l-25 52 200 198 201
198 81 -3 80 -3 18 -60 c35 -116 135 -217 259 -263 56 -21 161 -27 221 -14 45
11 128 48 164 74 l22 16 0 -61 c1 -33 1 -144 1 -246 0 -281 1 -265 -17 -265
-32 0 -125 -53 -165 -93 -172 -175 -122 -460 99 -569 59 -30 76 -33 152 -33
76 0 93 4 152 33 225 110 271 397 93 575 -36 36 -130 87 -159 87 -13 0 -16 13
-16 63 -1 34 -2 164 -3 289 -1 148 1 224 8 220 6 -3 24 -16 41 -29 107 -80
287 -88 423 -18 97 48 189 165 207 260 l6 34 84 3 84 3 199 -198 200 -198 -27
-57 c-23 -49 -27 -70 -27 -147 0 -76 4 -99 26 -145 34 -73 101 -140 175 -175
50 -24 72 -29 144 -29 75 -1 93 3 152 31 126 59 197 162 206 299 9 146 -63
271 -193 335 -105 52 -220 54 -314 6 l-44 -22 -174 173 c-95 96 -173 175 -173
177 0 1 28 31 63 67 112 115 156 254 128 404 -5 27 -12 56 -16 65 -4 10 7 30
30 55 52 57 93 147 106 234 l11 75 229 0 229 0 16 -47 c50 -152 214 -256 373
-237 287 33 418 375 225 588 -189 210 -521 128 -608 -151 -5 -17 -26 -18 -250
-18 l-245 0 -25 53 c-33 66 -104 140 -173 179 l-53 30 19 36 c10 20 24 61 30
90 32 152 -8 293 -116 413 l-37 40 204 204 203 203 56 -27 c48 -22 70 -26 146
-26 82 0 97 3 157 33 180 88 251 296 163 476 -46 94 -160 182 -250 193 -16 2
-43 5 -60 7 -35 4 -134 -18 -174 -38 -55 -29 -121 -98 -151 -160 -53 -109 -54
-224 -4 -321 l21 -40 -218 -218 -218 -219 -43 8 c-24 4 -46 9 -50 10 -5 1 -14
2 -22 3 -8 0 -16 18 -19 42 -3 23 -19 70 -36 104 -105 213 -391 290 -588 160
l-53 -35 0 275 c0 263 1 275 19 275 28 0 131 57 162 90 161 168 132 434 -60
554 -93 58 -218 71 -315 31z"/>
</g>
</svg>
